# xmcd CD database file
#
# Track frame offsets:
#	150
#	12650
#	27075
#	36591
#	47979
#	60795
#	76318
#	90450
#	102864
#	114975
#	124306
#	140534
#	155527
#	167191
#	177841
#	189279
#	205920
#	216014
#	226770
#	237181
#
# Disc length: 3289 seconds
#
# Revision: 1
# Processed by: cddbd v1.5.2PL0 Copyright (c) Steve Scherf et al.
# Submitted via: CDex 1.51
#
DISCID=060cd714
DTITLE=Various Artist - country music's greatest hits disc 3
DYEAR=1997
DGENRE=Country
TTITLE0=Dolly Parton - 9 to 5
TTITLE1=Glen Campbell - Rhinestone Cowboy
TTITLE2=Johnny Cash - I Got Stripes
TTITLE3=Willy Nelson - Crazy Arms
TTITLE4=Tammy Wynette - Take Me To Your World
TTITLE5=Crystal Gayle - When I Dream
TTITLE6=Charlie Rich - We Love Each Other
TTITLE7=Billie Jo Spears - What I've Got In Mind
TTITLE8=Slim Whitman - Top Of The World
TTITLE9=Chet Atkins - Yakety Axe
TTITLE10=Willie Nelson - Blue Skies
TTITLE11=Don Williams - I Recall A Gypsy Woman
TTITLE12=Glen Campbell And Bobbie Gentry - All I Have To Do Is Dream
TTITLE13=Jim Reeves - He'll Have To Go
TTITLE14=Marty Robbins - A White Sport Coat
TTITLE15=Johnny Cash - Riders In The Sky
TTITLE16=George Hamilton IV - Abilene
TTITLE17=Skeeter Davis - Gonna Get Along Without You Now
TTITLE18=Don Gibson - Sea Of Heartbreak
TTITLE19=Floyd Cramer - On The Rebound
EXTD=YEAR: 1997
EXTT0=
EXTT1=
EXTT2=
EXTT3=
EXTT4=
EXTT5=
EXTT6=
EXTT7=
EXTT8=
EXTT9=
EXTT10=
EXTT11=
EXTT12=
EXTT13=
EXTT14=
EXTT15=
EXTT16=
EXTT17=
EXTT18=
EXTT19=
PLAYORDER=
